<svg width="120" height="780" viewBox="0 0 120 780" fill="none" xmlns="http://www.w3.org/2000/svg">
<rect width="120" height="30" fill="white"/>
<rect y="30" width="120" height="30" fill="#FF0000"/>
<rect y="90" width="120" height="30" fill="#FF0000"/>
<rect y="150" width="120" height="30" fill="#FF0000"/>
<rect y="210" width="120" height="30" fill="#FF0000"/>
<rect y="270" width="120" height="30" fill="#FF0000"/>
<rect y="330" width="120" height="30" fill="#FF0000"/>
<rect y="390" width="120" height="30" fill="#FF0000"/>
<rect y="450" width="120" height="30" fill="#FF0000"/>
<rect y="510" width="120" height="30" fill="#FF0000"/>
<rect y="570" width="120" height="30" fill="#FF0000"/>
<rect y="630" width="120" height="30" fill="#FF0000"/>
<rect y="690" width="120" height="30" fill="#FF0000"/>
<rect y="750" width="120" height="30" fill="#FF0000"/>
<rect y="60" width="120" height="30" fill="white"/>
<rect y="120" width="120" height="30" fill="white"/>
<rect y="180" width="120" height="30" fill="white"/>
<rect y="240" width="120" height="30" fill="white"/>
<rect y="300" width="120" height="30" fill="white"/>
<rect y="360" width="120" height="30" fill="white"/>
<rect y="420" width="120" height="30" fill="white"/>
<rect y="480" width="120" height="30" fill="white"/>
<rect y="540" width="120" height="30" fill="white"/>
<rect y="600" width="120" height="30" fill="white"/>
<rect y="660" width="120" height="30" fill="white"/>
<rect y="720" width="120" height="30" fill="white"/>
</svg>
