<svg width="170" height="114" viewBox="0 0 170 114" fill="none" xmlns="http://www.w3.org/2000/svg">
<path d="M126.006 31.1272H43.9941V21.8303C43.9941 19.9965 45.4806 18.51 47.3145 18.51H122.686C124.519 18.51 126.006 19.9965 126.006 21.8303V31.1272Z" fill="#FFE07D"/>
<path d="M122.686 18.51H112.725C114.558 18.51 116.045 19.9965 116.045 21.8303V31.1272H126.006V21.8303C126.006 19.9965 124.519 18.51 122.686 18.51Z" fill="#FFD064"/>
<path d="M140.947 88.5244H29.0527V63.9143L53.9723 54.391C54.7294 54.1018 55.5326 53.9534 56.343 53.9534H85H113.657C114.467 53.9534 115.271 54.1018 116.028 54.391L140.948 63.9143V88.5244H140.947Z" fill="#FF8086"/>
<path d="M105.393 88.5244C104.827 82.8414 104.807 76.4428 105.806 69.5236C106.629 63.821 108.021 58.6267 109.722 53.9534H85.0001H60.2773C61.9787 58.6267 63.3712 63.8207 64.1943 69.5236C65.1931 76.4428 65.1728 82.8414 64.6067 88.5244H105.393Z" fill="#DB4955"/>
<path d="M29.0527 80.5586V88.5244H88.7078L29.0527 80.5586Z" fill="#FFD064"/>
<path d="M140.947 88.5245H29.0527V73.8752L53.9723 64.3519C54.7294 64.0627 55.5326 63.9143 56.343 63.9143H85H113.657C114.467 63.9143 115.271 64.0627 116.028 64.3519L140.948 73.8752V88.5245H140.947Z" fill="#FF8086"/>
<path d="M105.393 88.5245C104.827 82.8414 104.807 76.4429 105.805 69.5236C106.084 67.5945 106.43 65.7269 106.829 63.9143H84.9999H63.1711C63.5692 65.7269 63.9159 67.5945 64.1945 69.5236C65.1932 76.4429 65.173 82.8414 64.6068 88.5245H105.393Z" fill="#E5646E"/>
<path d="M27.3926 111.316H9.13086C5.46324 111.316 2.49023 108.343 2.49023 104.675V56.1989C2.49023 52.5312 5.46324 49.5582 9.13086 49.5582H27.3926C31.0602 49.5582 34.0332 52.5312 34.0332 56.1989V104.675C34.0332 108.343 31.0602 111.316 27.3926 111.316Z" fill="#655E67"/>
<path d="M27.3926 49.5582H17.4316C21.0993 49.5582 24.0723 52.5316 24.0723 56.1989V104.675C24.0723 108.343 21.0993 111.316 17.4316 111.316H27.3926C31.0602 111.316 34.0332 108.343 34.0332 104.675V56.1989C34.0332 52.5316 31.0602 49.5582 27.3926 49.5582Z" fill="#544F56"/>
<path d="M160.869 111.316H142.607C138.94 111.316 135.967 108.343 135.967 104.675V56.1989C135.967 52.5312 138.94 49.5582 142.607 49.5582H160.869C164.537 49.5582 167.51 52.5312 167.51 56.1989V104.675C167.51 108.343 164.537 111.316 160.869 111.316Z" fill="#655E67"/>
<path d="M160.869 49.5582H150.908C154.576 49.5582 157.549 52.5316 157.549 56.1989V104.675C157.549 108.343 154.576 111.316 150.908 111.316H160.869C164.537 111.316 167.51 108.343 167.51 104.675V56.1989C167.51 52.5316 164.537 49.5582 160.869 49.5582Z" fill="#544F56"/>
<path d="M148.483 96.6227L116.185 105.55C115.321 105.789 114.428 105.91 113.531 105.91H56.4683C55.5715 105.91 54.679 105.789 53.8144 105.55L21.5163 96.6227C20.0773 96.225 19.0806 94.9154 19.0806 93.4223V79.1333C19.0806 76.9824 21.0943 75.3993 23.1845 75.9066L58.9389 84.5896C59.7086 84.7765 60.4978 84.8708 61.2897 84.8708H108.71C109.502 84.8708 110.291 84.7765 111.061 84.5896L146.815 75.9066C148.905 75.399 150.919 76.9824 150.919 79.1333V93.4223C150.919 94.9154 149.922 96.225 148.483 96.6227Z" fill="#FF8086"/>
<path d="M146.815 75.9069L144.331 76.5102L140.492 77.4422C140.784 77.9339 140.958 78.5084 140.958 79.1332V98.7025L148.483 96.6223C148.512 96.6143 148.54 96.6037 148.568 96.5947C149.159 96.4145 149.672 96.0811 150.066 95.6431C150.088 95.6182 150.109 95.5917 150.13 95.5664C150.242 95.4346 150.343 95.2948 150.433 95.1471C150.742 94.6397 150.919 94.0474 150.919 93.4219V79.1329C150.919 76.9824 148.906 75.3992 146.815 75.9069Z" fill="#DB4955"/>
<path d="M93.4641 21.2387H76.5361V10.9547C76.5361 6.28032 80.3256 2.49084 84.9999 2.49084C89.6743 2.49084 93.4638 6.28032 93.4638 10.9547V21.2387H93.4641Z" fill="#FF8086"/>
<path d="M85 2.49084C83.138 2.49084 81.4171 3.09348 80.0195 4.11282C82.1303 5.65212 83.5029 8.14235 83.5029 10.9547V21.2387H93.4638V10.9547C93.4638 6.28032 89.6747 2.49084 85 2.49084Z" fill="#E5646E"/>
<path d="M100.383 41.0881H69.6172V31.9333C69.6172 23.4376 76.5045 16.5503 85.0002 16.5503C93.4959 16.5503 100.383 23.4376 100.383 31.9333V41.0881Z" fill="#717ED3"/>
<path d="M85 16.55C83.2562 16.55 81.5821 16.8446 80.0195 17.3791C86.0701 19.4493 90.4221 25.1812 90.4221 31.9331V41.0878H100.383V31.9331C100.383 23.4374 93.4957 16.55 85 16.55Z" fill="#5766CB"/>
<path d="M100.383 31.933C100.383 30.8682 100.275 29.829 100.069 28.8252L100.063 28.8173C96.1666 29.6224 91.3604 30.2908 85.847 30.3536C79.5883 30.4246 74.1881 29.6958 69.9371 28.8173L69.9261 28.8508C69.7236 29.8469 69.6167 30.8775 69.6167 31.933V46.0683H100.383V31.933H100.383Z" fill="#DCEAFC"/>
<path d="M105.424 88.8397C105.291 87.554 105.187 86.2289 105.115 84.8712H64.8855C64.8135 86.2289 64.7099 87.554 64.5768 88.8397C63.8835 95.5324 66.5334 101.726 71.1005 105.91H98.9002C103.467 101.726 106.117 95.5324 105.424 88.8397Z" fill="#DB4955"/>
<path d="M100.363 31.1402C100.361 31.1007 100.357 31.0618 100.354 31.0223C100.341 30.7995 100.326 30.5774 100.304 30.3573C100.301 30.3304 100.296 30.3038 100.293 30.2772C100.268 30.0451 100.24 29.8137 100.205 29.585C100.204 29.579 100.203 29.573 100.202 29.567C100.163 29.318 100.119 29.071 100.069 28.8263C100.069 28.8263 100.069 28.8259 100.069 28.8256L100.063 28.8176C97.2612 29.3967 93.987 29.9037 90.3201 30.1667C90.3865 30.7467 90.4223 31.3358 90.4223 31.9334V41.0882H100.383V31.9334C100.383 31.6671 100.377 31.4028 100.363 31.1402Z" fill="#BDD8FC"/>
<path d="M98.6012 69.2902C97.9361 73.8968 97.9614 78.1518 98.3515 81.9177C99.167 89.7895 92.9142 96.6111 85.0002 96.6111C77.0862 96.6111 70.8334 89.7895 71.6489 81.9177C72.039 78.1518 72.0639 73.8972 71.3992 69.2902C69.7596 57.9311 64.6766 49.6356 60.8917 44.771C59.725 43.2716 60.7822 41.0881 62.6821 41.0881H107.318C109.218 41.0881 110.275 43.2712 109.109 44.771C105.324 49.6353 100.241 57.9308 98.6012 69.2902Z" fill="#FF8086"/>
<path d="M160.869 47.0688H142.607C137.573 47.0688 133.477 51.1647 133.477 56.1996V58.3953L128.496 56.4911V21.8311C128.496 18.6273 125.889 16.0205 122.686 16.0205H95.9537V10.9537C95.9816 4.96752 90.9414 0 85 0C78.9604 0 74.0463 4.91373 74.0463 10.9537V16.0205H47.3145C44.1107 16.0205 41.5039 18.6273 41.5039 21.8311V56.4911L36.5234 58.3953V56.1996C36.5234 51.1647 32.4272 47.0688 27.3926 47.0688H9.13086C4.09627 47.0688 0 51.1647 0 56.1996V104.676C0 109.711 4.09627 113.807 9.13086 113.807H27.3926C32.4272 113.807 36.5234 109.711 36.5234 104.676V103.353L53.1509 107.949C54.2343 108.249 55.3506 108.402 56.4686 108.402H113.531C114.649 108.402 115.766 108.25 116.848 107.95L133.477 103.353V104.676C133.477 109.711 137.573 113.807 142.607 113.807H160.869C165.904 113.807 170 109.711 170 104.676V56.1996C170 51.1647 165.904 47.0688 160.869 47.0688ZM133.477 63.7274V68.3563L116.916 62.0244C115.875 61.6273 114.779 61.4258 113.658 61.4258H102.998C103.579 59.6577 104.238 57.9962 104.942 56.4453H113.658C114.17 56.4453 114.669 56.5366 115.139 56.7159L133.477 63.7274ZM95.8744 82.1741C96.1918 85.2384 95.2232 88.1942 93.1467 90.4965C91.0699 92.7994 88.1005 94.1206 85 94.1206C81.8995 94.1206 78.9301 92.7994 76.8533 90.4965C74.7768 88.1938 73.8082 85.2384 74.1256 82.1741C74.5828 77.7611 74.4945 73.3069 73.8637 68.9343C72.4678 59.2623 68.343 50.4043 63.1168 43.5781H106.883C101.44 50.6939 97.6089 58.731 96.1363 68.9343C95.5055 73.3069 95.4172 77.7611 95.8744 82.1741ZM101.066 69.6459C101.226 68.5356 101.423 67.4568 101.649 66.4063H113.658C114.17 66.4063 114.669 66.4976 115.139 66.6769L133.477 73.6884V76.582L110.467 82.1698C109.899 82.3092 109.308 82.38 108.71 82.38H100.883C100.593 78.0529 100.445 73.944 101.066 69.6459ZM122.686 21.001C123.143 21.001 123.516 21.3735 123.516 21.8311V28.6377H111.984C110.609 28.6377 109.494 29.7527 109.494 31.1279C109.494 32.5032 110.609 33.6182 111.984 33.6182H123.516V54.5866L116.916 52.0632C115.875 51.6661 114.779 51.4645 113.658 51.4645H107.549C108.741 49.4657 109.954 47.7388 111.074 46.2994C112.205 44.8465 112.405 42.918 111.598 41.2668C110.792 39.6203 109.153 38.5973 107.318 38.5973H102.873V31.9328C102.873 27.8153 101.467 24.0248 99.1173 21.0006H122.686V21.001ZM79.0268 10.9537C79.0268 7.66029 81.7063 4.98047 85 4.98047C88.2383 4.98047 90.9912 7.70113 90.9732 10.9537V15.0902C89.1042 14.4254 87.0941 14.0599 85 14.0599C82.9059 14.0599 80.8958 14.4251 79.0268 15.0902V10.9537ZM85 19.0403C90.3155 19.0403 94.8892 22.2743 96.8592 26.8776C93.2101 27.4872 89.5087 27.8216 85.8191 27.8634C81.5827 27.9119 77.3301 27.5759 73.1415 26.8763C75.1118 22.274 79.6848 19.0403 85 19.0403ZM72.1072 31.9331C72.1072 31.873 72.1109 31.8139 72.1119 31.7538C76.6571 32.5258 81.271 32.8957 85.8756 32.8435C89.8912 32.798 93.9197 32.4285 97.8885 31.7541C97.8891 31.8139 97.8931 31.873 97.8931 31.9331V38.5976H72.1076V31.9331H72.1072ZM46.4844 21.8311C46.4844 21.3735 46.8566 21.001 47.3145 21.001H70.8827C69.1761 23.198 67.9678 25.7988 67.4355 28.6377H46.4844V21.8311ZM46.4844 33.6182H67.1268V38.598H62.6819C60.8477 38.598 59.2078 39.621 58.4023 41.2675C57.5948 42.9187 57.7953 44.8471 58.9259 46.3004C60.0459 47.7395 61.2594 49.4667 62.4508 51.4652H56.3424C55.2211 51.4652 54.1244 51.6664 53.0822 52.0645L46.4844 54.5866V33.6182ZM36.5234 63.7274L54.8595 56.7166C55.3313 56.5366 55.8304 56.4453 56.3427 56.4453H65.0582C65.7628 57.9962 66.4209 59.6577 67.0029 61.4258H56.3424C55.2211 61.4258 54.1244 61.627 53.0822 62.0251L36.5234 68.3563V63.7274ZM31.543 104.676C31.543 106.965 29.6813 108.827 27.3926 108.827H9.13086C6.84217 108.827 4.98047 106.965 4.98047 104.676V56.1996C4.98047 53.9109 6.84217 52.0492 9.13086 52.0492H27.3926C29.6813 52.0492 31.543 53.9109 31.543 56.1996V75.3728L23.7734 73.4858C20.1663 72.5834 16.5694 75.4352 16.5916 79.133V93.4236C16.5916 96.0301 18.3451 98.3324 20.8522 99.0214L31.543 101.976V104.676ZM115.519 103.15C114.869 103.329 114.2 103.421 113.531 103.421H56.4686C55.7998 103.421 55.1311 103.33 54.479 103.149L22.1754 94.2199C21.8201 94.1222 21.5721 93.7949 21.5721 93.4236V79.133C21.5986 78.5324 22.0064 78.2063 22.5984 78.3255L40.2946 82.623C41.6307 82.9481 42.9771 82.1273 43.3022 80.7908C43.6269 79.4544 42.8065 78.1077 41.4697 77.7833L36.5234 76.582V73.6884L54.8595 66.6775C55.3313 66.4976 55.8304 66.4063 56.3427 66.4063H68.3516C68.5771 67.4568 68.7743 68.5359 68.9347 69.6459C69.5476 73.8926 69.4055 78.0921 69.117 82.3803H61.2896C60.6917 82.3803 60.101 82.3096 59.5262 82.1684L52.7664 80.5269C51.43 80.2018 50.0833 81.0226 49.7589 82.359C49.4341 83.6954 50.2546 85.0422 51.5913 85.3666L58.3445 87.0065C59.3008 87.2416 60.2916 87.3608 61.2896 87.3608H69.6323C70.2734 89.7384 71.4694 91.9634 73.1545 93.8317C76.1743 97.1802 80.4917 99.101 85 99.101C89.5083 99.101 93.8257 97.1806 96.8455 93.8317C98.5306 91.9634 99.7266 89.7381 100.368 87.3608H108.71C109.708 87.3608 110.699 87.2416 111.649 87.0081L147.402 78.3255C148.009 78.2096 148.4 78.5304 148.428 79.133V93.4236C148.428 93.7949 148.18 94.1222 147.821 94.2208L115.519 103.15ZM165.02 104.676C165.02 106.965 163.158 108.827 160.869 108.827H142.607C140.319 108.827 138.457 106.965 138.457 104.676V101.976L149.144 99.0224C151.655 98.3324 153.409 96.0301 153.409 93.4236V79.133C153.433 75.4236 149.803 72.5913 146.227 73.4858L138.457 75.3728V56.1996C138.457 53.9109 140.319 52.0492 142.608 52.0492H160.869C163.158 52.0492 165.02 53.9109 165.02 56.1996V104.676H165.02ZM85.3108 54.1055H80.0727C78.6971 54.1055 77.5824 55.2205 77.5824 56.5957C77.5824 57.971 78.6971 59.086 80.0727 59.086H82.8205V81.103C82.8205 82.4782 83.9352 83.5932 85.3108 83.5932C86.6864 83.5932 87.801 82.4782 87.801 81.103V56.5957C87.801 55.2205 86.6861 54.1055 85.3108 54.1055Z" fill="black"/>
</svg>
