<svg width="386" height="652" viewBox="0 0 386 652" fill="none" xmlns="http://www.w3.org/2000/svg">
<rect y="135" width="20" height="517" fill="white"/>
<rect x="366" width="20" height="645" fill="white"/>
<rect x="17" y="135" width="150" height="20" fill="white"/>
<rect x="216" width="150" height="20" fill="white"/>
<rect width="170" height="20" fill="white"/>
<path d="M95.1032 250.759H60.7586V238.069H98.8276L95.1032 250.759Z" fill="#7F8C8D"/>
<path d="M102 238.069H143.241V250.759H106.032L102 238.069Z" fill="#7F8C8D"/>
<path d="M140.069 297.679V334.098C138.166 335.208 149.586 340.411 149.586 342.759L152.759 345.931L111.517 352.276L139.339 301.327C139.824 300.172 140.072 298.931 140.069 297.679Z" fill="#494949"/>
<path d="M122.05 345.931H136.897L143.241 364.966L108.345 368.138L122.05 345.931Z" fill="#363636"/>
<path d="M63.931 297.679C63.9276 298.931 64.1758 300.172 64.6607 301.327L95.6552 349.103L57.5862 355.448L51.2414 349.103C51.2414 346.756 65.8345 335.208 63.931 334.098V297.679Z" fill="#494949"/>
<path d="M67.1034 345.931H81.9503L92.4827 364.966L54.4138 368.138L67.1034 345.931Z" fill="#363636"/>
<path d="M60.7586 203.172H105.172C105.061 203.447 104.987 203.735 104.95 204.029L103.11 215.862H60.7586C59.0065 215.862 57.5862 214.442 57.5862 212.69V206.345C57.5862 204.593 59.0065 203.172 60.7586 203.172Z" fill="#494949"/>
<path d="M98.8276 203.172H143.241C144.993 203.172 146.414 204.593 146.414 206.345V212.69C146.414 214.442 144.993 215.862 143.241 215.862H100.89L99.0496 204.029C99.0134 203.735 98.9388 203.447 98.8276 203.172Z" fill="#494949"/>
<path d="M48.069 231.724V257.103C48.069 260.608 50.9096 263.448 54.4138 263.448H63.931C67.4352 263.448 70.2759 260.608 70.2759 257.103V231.724C70.2759 228.22 67.4352 225.379 63.931 225.379H54.4138C50.9096 225.379 48.069 228.22 48.069 231.724Z" fill="#2C2F38"/>
<path d="M133.724 231.724V257.103C133.724 260.608 136.565 263.448 140.069 263.448H149.586C153.09 263.448 155.931 260.608 155.931 257.103V231.724C155.931 228.22 153.09 225.379 149.586 225.379H140.069C136.565 225.379 133.724 228.22 133.724 231.724Z" fill="#2C2F38"/>
<path d="M51.2414 333.241H60.7586C64.2628 333.241 67.1035 336.082 67.1035 339.586V358.621H63.931C62.179 358.621 60.7586 360.041 60.7586 361.793V371.31H51.2414C47.7416 371.3 44.907 368.465 44.8965 364.966V339.586C44.907 336.086 47.7416 333.252 51.2414 333.241Z" fill="#2C2F38"/>
<path d="M143.241 333.241H152.759C156.258 333.252 159.093 336.086 159.103 339.586V364.966C159.093 368.465 156.258 371.3 152.759 371.31H143.241V361.793C143.241 360.041 141.821 358.621 140.069 358.621H136.897V339.586C136.897 336.082 139.737 333.241 143.241 333.241Z" fill="#2C2F38"/>
<path d="M95.9407 203.172C95.8295 203.447 95.7548 203.735 95.7186 204.029L93.8786 215.862L90.389 238.069L88.4221 250.759L82.9655 285.655C79.6931 287.164 76.1597 288.026 72.56 288.193C67.672 288.665 63.9393 292.768 63.931 297.679C63.9276 298.931 64.1758 300.172 64.6607 301.327L81.9503 345.931L86.8676 358.621L102 368.138L117.132 358.621L122.05 345.931L139.339 301.327C139.824 300.172 140.072 298.931 140.069 297.679C140.061 292.768 136.328 288.665 131.44 288.193C127.84 288.026 124.307 287.164 121.034 285.655L115.578 250.759L113.611 238.069L110.121 215.862L108.281 204.029C108.245 203.735 108.17 203.447 108.059 203.172C106.378 198.953 97.6221 198.953 95.9407 203.172Z" fill="#CCCCCC"/>
<path d="M92.4827 317.379H111.517L103.523 344.789C103.325 345.466 102.705 345.931 102 345.931C101.295 345.931 100.675 345.466 100.477 344.789L92.4827 317.379Z" fill="#494949"/>
<path d="M102 292C107.256 292 111.517 296.261 111.517 301.517V317.379H92.4827V301.517C92.4827 296.261 96.7437 292 102 292Z" fill="#2C2F38"/>
<path d="M60.7586 361.793V380.828C60.7586 382.58 62.179 384 63.931 384H140.069C141.821 384 143.241 382.58 143.241 380.828V361.793C143.241 360.041 141.821 358.621 140.069 358.621H63.931C62.179 358.621 60.7586 360.041 60.7586 361.793Z" fill="#BFBFBF"/>
<path d="M79.7931 371.31C79.7931 373.062 78.3728 374.483 76.6207 374.483H73.4483C71.6962 374.483 70.2759 373.062 70.2759 371.31C70.2759 369.558 71.6962 368.138 73.4483 368.138H76.6207C78.3728 368.138 79.7931 369.558 79.7931 371.31Z" fill="#E6E7E8"/>
<path d="M108.345 371.31C108.345 373.062 106.924 374.483 105.172 374.483H89.3104C87.5583 374.483 86.1379 373.062 86.1379 371.31C86.1379 369.558 87.5583 368.138 89.3104 368.138H105.172C106.924 368.138 108.345 369.558 108.345 371.31Z" fill="#E6E7E8"/>
<path d="M284.103 93.7586H249.759V81.069H287.828L284.103 93.7586Z" fill="#7F8C8D"/>
<path d="M291 81.069H332.241V93.7586H295.032L291 81.069Z" fill="#7F8C8D"/>
<path d="M329.069 140.679V177.098C327.166 178.208 338.586 183.411 338.586 185.759L341.759 188.931L300.517 195.276L328.339 144.327C328.824 143.172 329.072 141.931 329.069 140.679Z" fill="#802F34"/>
<path d="M311.05 188.931H325.897L332.241 207.966L297.345 211.138L311.05 188.931Z" fill="#7F8C8D"/>
<path d="M252.931 140.679C252.928 141.931 253.176 143.172 253.661 144.327L284.655 192.103L246.586 198.448L240.241 192.103C240.241 189.756 254.834 178.208 252.931 177.098V140.679Z" fill="#802F34"/>
<path d="M256.103 188.931H270.95L281.483 207.966L243.414 211.138L256.103 188.931Z" fill="#7F8C8D"/>
<path d="M249.759 46.1724H294.172C294.061 46.447 293.987 46.735 293.95 47.029L292.11 58.8621H249.759C248.007 58.8621 246.586 57.4417 246.586 55.6897V49.3448C246.586 47.5928 248.007 46.1724 249.759 46.1724Z" fill="#802F34"/>
<path d="M287.828 46.1724H332.241C333.993 46.1724 335.414 47.5928 335.414 49.3448V55.6897C335.414 57.4417 333.993 58.8621 332.241 58.8621H289.89L288.05 47.029C288.013 46.735 287.939 46.447 287.828 46.1724Z" fill="#802F34"/>
<path d="M237.069 74.7241V100.103C237.069 103.608 239.91 106.448 243.414 106.448H252.931C256.435 106.448 259.276 103.608 259.276 100.103V74.7241C259.276 71.22 256.435 68.3793 252.931 68.3793H243.414C239.91 68.3793 237.069 71.22 237.069 74.7241Z" fill="#2C2F38"/>
<path d="M322.724 74.7241V100.103C322.724 103.608 325.565 106.448 329.069 106.448H338.586C342.09 106.448 344.931 103.608 344.931 100.103V74.7241C344.931 71.22 342.09 68.3793 338.586 68.3793H329.069C325.565 68.3793 322.724 71.22 322.724 74.7241Z" fill="#2C2F38"/>
<path d="M240.241 176.241H249.759C253.263 176.241 256.103 179.082 256.103 182.586V201.621H252.931C251.179 201.621 249.759 203.041 249.759 204.793V214.31H240.241C236.742 214.3 233.907 211.465 233.897 207.966V182.586C233.907 179.086 236.742 176.252 240.241 176.241Z" fill="#2C2F38"/>
<path d="M332.241 176.241H341.759C345.258 176.252 348.093 179.086 348.103 182.586V207.966C348.093 211.465 345.258 214.3 341.759 214.31H332.241V204.793C332.241 203.041 330.821 201.621 329.069 201.621H325.897V182.586C325.897 179.082 328.737 176.241 332.241 176.241Z" fill="#2C2F38"/>
<path d="M284.941 46.1724C284.83 46.447 284.755 46.735 284.719 47.029L282.879 58.8621L279.389 81.069L277.422 93.7586L271.966 128.655C268.693 130.164 265.16 131.026 261.56 131.193C256.672 131.665 252.939 135.768 252.931 140.679C252.928 141.931 253.176 143.172 253.661 144.327L270.95 188.931L275.868 201.621L291 211.138L306.132 201.621L311.05 188.931L328.339 144.327C328.824 143.172 329.072 141.931 329.069 140.679C329.061 135.768 325.328 131.665 320.44 131.193C316.84 131.026 313.307 130.164 310.034 128.655L304.578 93.7586L302.611 81.069L299.121 58.8621L297.281 47.029C297.245 46.735 297.17 46.447 297.059 46.1724C295.378 41.9531 286.622 41.9531 284.941 46.1724Z" fill="#E64C3C"/>
<path d="M281.483 160.379H300.517L292.523 187.789C292.325 188.466 291.705 188.931 291 188.931C290.295 188.931 289.675 188.466 289.477 187.789L281.483 160.379Z" fill="#802F34"/>
<path d="M291 135C296.256 135 300.517 139.261 300.517 144.517V160.379H281.483V144.517C281.483 139.261 285.744 135 291 135Z" fill="#2C2F38"/>
<path d="M249.759 204.793V223.828C249.759 225.58 251.179 227 252.931 227H329.069C330.821 227 332.241 225.58 332.241 223.828V204.793C332.241 203.041 330.821 201.621 329.069 201.621H252.931C251.179 201.621 249.759 203.041 249.759 204.793Z" fill="#FB7B76"/>
<path d="M268.793 214.31C268.793 216.062 267.373 217.483 265.621 217.483H262.448C260.696 217.483 259.276 216.062 259.276 214.31C259.276 212.558 260.696 211.138 262.448 211.138H265.621C267.373 211.138 268.793 212.558 268.793 214.31Z" fill="#E6E7E8"/>
<path d="M297.345 214.31C297.345 216.062 295.924 217.483 294.172 217.483H278.31C276.558 217.483 275.138 216.062 275.138 214.31C275.138 212.558 276.558 211.138 278.31 211.138H294.172C295.924 211.138 297.345 212.558 297.345 214.31Z" fill="#E6E7E8"/>
</svg>
