<svg width="128" height="128" viewBox="0 0 128 128" fill="none" xmlns="http://www.w3.org/2000/svg">
<path d="M120.308 63.8799C120.308 28.5996 93.3765 0 60.1539 0C26.9307 0 0 28.5999 0 63.8799C0 99.157 26.9307 127.757 60.1539 127.757C93.3762 127.757 120.308 99.157 120.308 63.8799Z" fill="#88928F"/>
<path d="M43.2401 57.2891L30.9805 67.222H43.8054L56.065 57.2891H43.2401Z" fill="white"/>
<path d="M13.1068 57.2891L0.847168 67.222H8.07282L20.3324 57.2891H13.1068Z" fill="white"/>
<path d="M114.705 57.2891L102.446 67.222H115.27L127.53 57.2891H114.705Z" fill="white"/>
<path d="M78.9733 57.2891L66.7137 67.222H79.5378L91.7974 57.2891H78.9733Z" fill="white"/>
<path d="M127.756 55.1805L85.048 43.2749L70.0999 103.745L112.808 115.65L127.756 55.1805Z" fill="#F5ECE1"/>
<path d="M99.2859 47.2416L85.05 43.273L81.3129 58.3909L95.5488 62.3594L99.2859 47.2416Z" fill="#505B66"/>
<path d="M127.757 55.172L113.521 51.2051L109.786 66.3227L124.021 70.2895L127.757 55.172Z" fill="#505B66"/>
<path d="M109.783 66.3307L95.5467 62.362L91.8102 77.4772L106.047 81.4459L109.783 66.3307Z" fill="#505B66"/>
<path d="M91.8079 77.4795L77.5717 73.5109L73.8347 88.6282L88.0709 92.5968L91.8079 77.4795Z" fill="#505B66"/>
<path d="M120.284 85.4063L106.048 81.4393L102.312 96.5575L116.548 100.525L120.284 85.4063Z" fill="#505B66"/>
<path d="M102.312 96.5627L88.0751 92.594L84.3381 107.712L98.5748 111.68L102.312 96.5627Z" fill="#505B66"/>
<g opacity="0.4">
<path opacity="0.4" d="M127.756 55.1805L85.048 43.2749L70.0999 103.745L112.808 115.65L127.756 55.1805Z" fill="#F5ECE1"/>
<path opacity="0.4" d="M99.2859 47.2416L85.05 43.273L81.3129 58.3909L95.5488 62.3594L99.2859 47.2416Z" fill="#505B66"/>
<path opacity="0.4" d="M127.757 55.172L113.521 51.2051L109.786 66.3227L124.021 70.2895L127.757 55.172Z" fill="#505B66"/>
<path opacity="0.4" d="M109.783 66.3307L95.5467 62.362L91.8102 77.4772L106.047 81.4459L109.783 66.3307Z" fill="#505B66"/>
<path opacity="0.4" d="M91.8079 77.4795L77.5717 73.5109L73.8347 88.6282L88.0709 92.5968L91.8079 77.4795Z" fill="#505B66"/>
<path opacity="0.4" d="M120.284 85.4063L106.048 81.4393L102.312 96.5575L116.548 100.525L120.284 85.4063Z" fill="#505B66"/>
<path opacity="0.4" d="M102.312 96.5627L88.0751 92.594L84.3381 107.712L98.5748 111.68L102.312 96.5627Z" fill="#505B66"/>
</g>
<path d="M70.1039 103.748L78.811 68.5206L104.545 99.9312L70.1039 103.748Z" fill="#505B66"/>
<path opacity="0.62" d="M70.1039 103.748L78.811 68.5206L104.545 99.9312L70.1039 103.748Z" fill="#505B66"/>
<path d="M119.486 39.4615L48.3056 19.6186L33.3576 80.088L104.538 99.9309L119.486 39.4615Z" fill="#F5ECE1"/>
<path d="M62.5413 23.5888L48.3052 19.6202L44.5681 34.7381L58.8042 38.7067L62.5413 23.5888Z" fill="#505B66"/>
<path d="M91.0142 31.5255L76.7778 27.5568L73.0406 42.675L87.277 46.6436L91.0142 31.5255Z" fill="#505B66"/>
<path d="M119.488 39.461L105.251 35.4922L101.514 50.6104L115.751 54.5791L119.488 39.461Z" fill="#505B66"/>
<path d="M73.0439 42.6717L58.8078 38.7031L55.0706 53.8212L69.3068 57.7899L73.0439 42.6717Z" fill="#505B66"/>
<path d="M101.516 50.6028L87.2796 46.6358L83.5439 61.7539L97.78 65.721L101.516 50.6028Z" fill="#505B66"/>
<path d="M55.0706 53.8184L40.8344 49.8513L37.0987 64.9695L51.3348 68.9366L55.0706 53.8184Z" fill="#505B66"/>
<path d="M83.5485 61.7615L69.3112 57.7946L65.5759 72.9125L79.8132 76.8794L83.5485 61.7615Z" fill="#505B66"/>
<path d="M112.012 69.6967L97.7759 65.7282L94.0393 80.8443L108.275 84.8128L112.012 69.6967Z" fill="#505B66"/>
<path d="M65.5649 72.9096L51.3287 68.941L47.592 84.0574L61.8281 88.026L65.5649 72.9096Z" fill="#505B66"/>
<path d="M94.0439 80.8417L79.808 76.8732L76.071 91.9908L90.3069 95.9593L94.0439 80.8417Z" fill="#505B66"/>
<path d="M52.4781 10.4903L41.0179 7.29576C39.1384 6.77134 37.2155 7.96506 36.7225 9.96094C36.229 11.9556 37.3528 13.9982 39.2317 14.5223L41.0222 15.0215L17.7476 109.182C19.8881 111.441 22.1881 113.528 24.6271 115.427L48.9016 17.217L50.6927 17.7165C52.5716 18.2397 54.4951 17.0469 54.9881 15.0517C55.4813 13.0561 54.3578 11.0138 52.4781 10.4903Z" fill="#EA7053"/>
<path d="M119.486 39.4615L48.3056 19.6186L33.3576 80.088L104.538 99.9309L119.486 39.4615Z" fill="#F5ECE1"/>
<path d="M62.5413 23.5888L48.3052 19.6202L44.5681 34.7381L58.8042 38.7067L62.5413 23.5888Z" fill="#505B66"/>
<path d="M91.0142 31.5255L76.7778 27.5568L73.0406 42.675L87.277 46.6436L91.0142 31.5255Z" fill="#505B66"/>
<path d="M119.488 39.461L105.251 35.4922L101.514 50.6104L115.751 54.5791L119.488 39.461Z" fill="#505B66"/>
<path d="M73.0439 42.6717L58.8078 38.7031L55.0706 53.8212L69.3068 57.7899L73.0439 42.6717Z" fill="#505B66"/>
<path d="M101.516 50.6028L87.2796 46.6358L83.5439 61.7539L97.78 65.721L101.516 50.6028Z" fill="#505B66"/>
<path d="M55.0706 53.8184L40.8344 49.8513L37.0987 64.9695L51.3348 68.9366L55.0706 53.8184Z" fill="#505B66"/>
<path d="M83.5485 61.7615L69.3112 57.7946L65.5759 72.9125L79.8132 76.8794L83.5485 61.7615Z" fill="#505B66"/>
<path d="M112.012 69.6967L97.7759 65.7282L94.0393 80.8443L108.275 84.8128L112.012 69.6967Z" fill="#505B66"/>
<path d="M65.5649 72.9096L51.3287 68.941L47.592 84.0574L61.8281 88.026L65.5649 72.9096Z" fill="#505B66"/>
<path d="M90.359 96.04L76.1652 92.0661L79.8083 76.8769L94.0446 80.845L90.359 96.04Z" fill="#505B66"/>
</svg>
