<svg width="129" height="128" viewBox="0 0 129 128" fill="none" xmlns="http://www.w3.org/2000/svg">
<g clip-path="url(#clip0)">
<path d="M128.492 63.6288C128.492 78.6471 123.308 92.4577 114.632 103.361C102.93 118.074 84.8748 127.507 64.6136 127.507C44.3523 127.507 26.2969 118.074 14.5955 103.361C5.91872 92.4577 0.735229 78.6471 0.735229 63.6288C0.735229 28.3493 29.3341 -0.249512 64.6136 -0.249512C99.893 -0.249512 128.492 28.3493 128.492 63.6288Z" fill="#F4CA19"/>
<path d="M114.632 103.361C111.252 107.611 107.345 111.418 103.005 114.685C96.7584 119.391 89.6196 122.979 81.8892 125.145C77.5615 126.357 73.0457 127.126 68.3944 127.398C67.1429 127.471 65.8836 127.507 64.6135 127.507C63.3435 127.507 62.0842 127.471 60.8326 127.395C50.8916 126.816 41.5598 123.961 33.3547 119.349C26.1068 115.274 19.7371 109.83 14.5955 103.361L47.6663 93.9441H81.5578L114.632 103.361Z" fill="#E6E6E6"/>
<path d="M68.3944 91.597V127.398C67.1429 127.471 65.8836 127.507 64.6135 127.507C63.3435 127.507 62.0842 127.471 60.8326 127.395V91.597H68.3944Z" fill="#D6D6D6"/>
<path d="M59.6601 96.5505L33.3547 119.349C26.1068 115.274 19.7371 109.83 14.5955 103.361L47.6663 93.9441H51.5408L59.6601 96.5505Z" fill="#D6D6D6"/>
<path d="M109.866 45.0061C109.866 50.1252 109.875 57.8205 109.274 65.7888C108.388 77.5184 106.174 89.8377 100.652 95.3594C91.379 104.634 64.6145 104.634 64.6145 104.634C64.6145 104.634 37.8472 104.634 28.5728 95.3594C23.0511 89.8377 20.8376 77.5184 19.9516 65.7859C19.3502 57.8186 19.359 50.1223 19.359 45.0061C19.359 42.5625 19.5529 40.1676 19.9253 37.8303C23.363 16.2484 42.0618 -0.249512 64.6145 -0.249512C87.1663 -0.249512 105.863 16.2493 109.301 37.8303C109.673 40.1676 109.866 42.5625 109.866 45.0061Z" fill="#FF2751"/>
<path d="M64.3816 104.631C61.7382 104.606 37.3384 104.125 28.5728 95.3594C23.0511 89.8377 20.8376 77.5184 19.9516 65.7859C19.3502 57.8176 19.359 50.1223 19.359 45.0061C19.359 42.5625 19.5529 40.1676 19.9243 37.8303C23.363 16.2484 42.0618 -0.249512 64.6145 -0.249512C50.9735 -0.249512 39.665 16.2493 37.584 37.8303C37.3598 40.1676 37.2419 42.5625 37.2419 45.0061C37.2419 50.1223 37.236 57.8186 37.6015 65.7859C38.1376 77.5184 39.474 89.8377 42.8153 95.3594C48.028 103.977 62.3795 104.588 64.3816 104.631Z" fill="#D10F46"/>
<path d="M109.866 45.0061C109.866 50.1252 109.875 57.8205 109.274 65.7888C108.813 66.282 108.336 66.7381 107.834 67.1553C96.7125 76.4267 64.6145 76.4267 64.6145 76.4267C64.6145 76.4267 32.5126 76.4267 21.3912 67.1553C20.8892 66.7352 20.4077 66.279 19.9515 65.7858C19.3491 57.8176 19.3589 50.1223 19.3589 45.0061C19.3589 42.5625 19.5519 40.1676 19.9242 37.8303C20.3901 38.2348 20.8765 38.6101 21.3912 38.9522C32.5126 46.3726 64.6145 46.3726 64.6145 46.3726C64.6145 46.3726 96.7125 46.3726 107.834 38.9522C108.345 38.6101 108.835 38.2348 109.301 37.8303C109.673 40.1676 109.866 42.5625 109.866 45.0061Z" fill="#18282D"/>
<path d="M44.5239 61.0975C44.5239 66.7323 39.9554 71.3007 34.3197 71.3007C28.6849 71.3007 24.1165 66.7323 24.1165 61.0975C24.1165 55.4618 28.6849 50.8943 34.3197 50.8943C39.9554 50.8943 44.5239 55.4618 44.5239 61.0975Z" fill="#C67566"/>
<path d="M105.109 61.0975C105.109 66.7323 100.54 71.3007 94.9054 71.3007C89.2697 71.3007 84.7012 66.7323 84.7012 61.0975C84.7012 55.4618 89.2697 50.8943 94.9054 50.8943C100.54 50.8943 105.109 55.4618 105.109 61.0975Z" fill="#C67566"/>
<path d="M95.077 28.7275V67.7226C95.077 69.5209 94.9201 71.2812 94.6209 72.9938C81.1699 76.4277 64.6136 76.4277 64.6136 76.4277C64.6136 76.4277 48.2034 76.4277 34.7837 73.0386C34.4786 71.3124 34.3197 69.5365 34.3197 67.7226V28.7275H95.077Z" fill="#E89F8E"/>
<path d="M43.8436 74.8165C40.8171 74.3632 37.7273 73.7813 34.7837 73.0386C34.4786 71.3124 34.3197 69.5365 34.3197 67.7245V28.7275H43.0121V67.7245C43.0121 70.1681 43.3016 72.5405 43.8436 74.8165Z" fill="#C67566"/>
<path d="M40.7381 35.3195L31.3361 40.0517V61.5839C36.5284 61.5839 40.7381 57.3741 40.7381 52.1809V35.3195Z" fill="#E29B0E"/>
<path d="M88.6586 40.0516H98.0606V61.5839C92.8683 61.5839 88.6586 57.3741 88.6586 52.1809V40.0516Z" fill="#F4CA19"/>
<path d="M64.6993 41.8412L58.9768 68.6466H64.6993V41.8412Z" fill="#C67566"/>
<path d="M57.1824 55.9579C57.1824 52.8213 54.6404 50.2792 51.5038 50.2792C48.3672 50.2792 45.8251 52.8213 45.8251 55.9579H57.1824Z" fill="#C67566"/>
<path d="M83.5716 55.9579C83.5716 52.8213 81.0286 50.2792 77.8929 50.2792C74.7563 50.2792 72.2143 52.8213 72.2143 55.9579H83.5716Z" fill="#C67566"/>
<path d="M51.5038 52.6049C53.3313 52.6049 54.8129 54.0864 54.8129 55.914V61.1034C54.8129 62.9309 53.3313 64.4125 51.5038 64.4125C49.6752 64.4125 48.1937 62.9309 48.1937 61.1034V55.914C48.1937 54.0864 49.6752 52.6049 51.5038 52.6049Z" fill="#2C2133"/>
<path d="M77.8929 52.6049C79.7205 52.6049 81.203 54.0864 81.203 55.914V61.1034C81.203 62.9309 79.7205 64.4125 77.8929 64.4125C76.0644 64.4125 74.5828 62.9309 74.5828 61.1034V55.914C74.5828 54.0864 76.0644 52.6049 77.8929 52.6049Z" fill="#2C2133"/>
<path d="M112.233 48.6836C112.233 51.1272 112.032 53.5201 111.638 55.8594C111.148 55.452 110.637 55.0797 110.095 54.7356C108.585 53.7784 106.703 52.9441 104.576 52.214C99.468 50.4703 92.9336 49.3484 86.6321 48.6261C83.9205 48.3133 81.2586 48.0793 78.7682 47.8961C75.8304 47.6826 73.1364 47.5501 70.9072 47.4614C67.0747 47.3152 64.6106 47.3152 64.6106 47.3152C64.6106 47.3152 48.1663 47.3152 34.2514 49.8367C33.2845 50.0112 32.3332 50.1964 31.3965 50.3972C29.9004 50.7179 28.4529 51.0717 27.0796 51.4635C25.2305 51.985 23.518 52.5766 21.9974 53.2414C21.9039 53.2804 21.8122 53.3223 21.7216 53.3642C20.7722 53.7892 19.9038 54.2482 19.1299 54.7356C18.5899 55.0797 18.0762 55.452 17.5859 55.8594C17.1951 53.5201 16.9913 51.1272 16.9913 48.6836C16.9913 43.9544 16.9816 37.0193 17.4816 29.7081C17.5654 28.4751 18.1464 27.3122 19.1143 26.5481C19.1191 26.5432 19.124 26.5403 19.1299 26.5325C19.9038 25.9223 20.7722 25.3511 21.7216 24.8141C21.8122 24.7624 21.9039 24.7127 21.9974 24.663C23.518 23.8316 25.2305 23.0957 27.0796 22.4416C28.4529 21.9543 29.9004 21.5108 31.3965 21.1121C32.3332 20.8616 33.2845 20.6297 34.2514 20.4104C48.1663 17.2611 64.6106 17.2611 64.6106 17.2611C64.6106 17.2611 67.0747 17.2611 70.9072 17.4463C73.1364 17.5525 75.8304 17.7172 78.7682 17.9863C81.2586 18.2124 83.9205 18.5077 86.6321 18.8957C92.9336 19.7982 99.468 21.2057 104.576 23.3852C106.703 24.2926 108.585 25.3355 110.095 26.5325C110.103 26.5403 110.111 26.5452 110.119 26.551C111.083 27.322 111.66 28.477 111.745 29.7051C112.244 37.0242 112.233 43.9544 112.233 48.6836Z" fill="#18282D"/>
<path d="M104.575 23.3852V52.215C99.4671 50.4703 92.9326 49.3484 86.6312 48.6252V18.8947C92.9326 19.7992 99.4671 21.2047 104.575 23.3852Z" fill="#31474C"/>
<path d="M78.7692 17.9843V47.897C75.8295 47.6826 73.1354 47.5491 70.9072 47.4614V17.4463C73.1354 17.5525 75.8295 17.7182 78.7692 17.9843Z" fill="#31474C"/>
<path d="M21.9974 24.663V53.2414C21.9039 53.2804 21.8122 53.3223 21.7216 53.3642C20.7722 53.7892 19.9038 54.2482 19.1299 54.7356C18.5899 55.0797 18.0762 55.452 17.5859 55.8594C17.1951 53.5201 16.9913 51.1272 16.9913 48.6836C16.9913 43.9544 16.9816 37.0193 17.4816 29.7081C17.5654 28.4751 18.1464 27.3122 19.1143 26.5481C19.1191 26.5432 19.124 26.5403 19.1299 26.5325C19.9038 25.9223 20.7722 25.3511 21.7216 24.8141C21.8122 24.7624 21.9039 24.7127 21.9974 24.663Z" fill="#31474C"/>
<path d="M34.2514 20.4103V49.8367C33.2845 50.0112 32.3332 50.1964 31.3965 50.3972C29.9003 50.7178 28.4529 51.0717 27.0795 51.4635V22.4416C28.4529 21.9543 29.9003 21.5108 31.3965 21.1121C32.3332 20.8616 33.2845 20.6296 34.2514 20.4103Z" fill="#31474C"/>
<path d="M64.6145 79.035C63.2645 79.035 31.4336 78.9229 19.7215 69.1593C19.1289 68.6632 18.5645 68.1261 18.0382 67.5588C17.0606 66.5022 17.1229 64.853 18.1795 63.8744C19.2361 62.8958 20.8853 62.9592 21.8639 64.0148C22.2401 64.4212 22.6447 64.8053 23.0647 65.1581C27.215 68.6174 35.6443 71.2179 47.4373 72.6741C56.5937 73.8057 64.5346 73.8203 64.6145 73.8203C64.6925 73.8203 72.6334 73.8057 81.7888 72.6741C93.5808 71.2179 102.009 68.6174 106.164 65.1542C106.57 64.8179 106.973 64.4339 107.367 64.0119C108.349 62.9582 109.999 62.9007 111.051 63.8832C112.105 64.8657 112.163 66.5149 111.18 67.5686C110.636 68.1514 110.072 68.6875 109.501 69.1612C97.7915 78.9229 65.9635 79.035 64.6145 79.035Z" fill="#E6E6E6"/>
<path d="M103.005 114.685C96.7583 119.391 89.6196 122.979 81.8892 125.145C81.6943 124.282 81.5919 123.385 81.5919 122.462C81.5919 115.769 87.0181 110.344 93.7104 110.344C97.4445 110.344 100.782 112.031 103.005 114.685Z" fill="#FF2751"/>
</g>
<defs>
<clipPath id="clip0">
<rect width="127.757" height="127.757" fill="white" transform="translate(0.984741)"/>
</clipPath>
</defs>
</svg>
