<svg width="128" height="128" viewBox="0 0 128 128" fill="none" xmlns="http://www.w3.org/2000/svg">
<g clip-path="url(#clip0)">
<path fill-rule="evenodd" clip-rule="evenodd" d="M51.6895 62.7489L16.9022 2.4953H2.49551L41.2325 69.5899C41.8962 69.0217 42.6897 68.6195 43.5423 68.4206L46.9935 67.275L49.3325 64.4185C49.977 63.6307 50.7967 63.0708 51.6895 62.7489Z" fill="#FF5A58"/>
<path fill-rule="evenodd" clip-rule="evenodd" d="M16.9023 2.4953L51.6896 62.7489C52.4766 62.4652 53.3205 62.3664 54.1507 62.4597L58.1148 62.7464L61.3297 61.0232C62.4276 60.4376 63.6365 60.2684 64.7759 60.4608L31.3088 2.4953H16.9023Z" fill="white"/>
<path fill-rule="evenodd" clip-rule="evenodd" d="M31.3089 2.4953L64.7754 60.4608C65.3583 60.5591 65.9227 60.7523 66.4447 61.0322L70.0266 62.829L73.6876 62.4642C75.5259 62.2836 77.2399 63.0431 78.352 64.3514L81.0304 67.4472L83.6758 68.2464L78.2846 58.9085L71.0814 46.4319L63.8786 33.9564L45.7143 2.4953H31.3089Z" fill="#60A4FF"/>
<path fill-rule="evenodd" clip-rule="evenodd" d="M82.0425 2.49524L63.8782 33.9566L71.0809 46.432L96.4477 2.49524H82.0425Z" fill="#FF5A58"/>
<path fill-rule="evenodd" clip-rule="evenodd" d="M96.4477 2.49524L71.0809 46.432L78.2842 58.9085L110.854 2.49524H96.4477Z" fill="white"/>
<path fill-rule="evenodd" clip-rule="evenodd" d="M110.854 2.49524L78.2842 58.9085L83.6754 68.2464L84.5565 68.5126C85.3043 68.7384 85.9675 69.111 86.5242 69.5891L125.261 2.49524H110.854Z" fill="#60A4FF"/>
<path fill-rule="evenodd" clip-rule="evenodd" d="M83.6756 68.2464L81.0302 67.4471L78.3518 64.3513C77.2397 63.0433 75.5257 62.2835 73.6875 62.4642L70.0265 62.829L66.4446 61.0321C65.9226 60.7519 65.3581 60.559 64.7753 60.4607C63.6362 60.2686 62.4272 60.4375 61.3293 61.0232L58.1145 62.7464L54.1503 62.4597C53.3201 62.3663 52.4765 62.4649 51.6893 62.7489C50.7965 63.0708 49.9768 63.6307 49.3323 64.4184L46.9932 67.275L43.5421 68.4205C42.6894 68.6194 41.896 69.0216 41.2322 69.5898C40.4699 70.2423 39.8793 71.1131 39.5677 72.1447L38.5022 75.6712L35.4064 78.3496C34.0984 79.4617 33.3386 81.1757 33.5192 83.0139L33.884 86.6749L32.0872 90.2568C31.2595 91.7986 31.1929 93.7122 32.0782 95.372L33.8014 98.5869L33.5147 102.551C33.3156 104.323 33.9911 106.156 35.4735 107.369L38.33 109.708L39.4756 113.159C39.9025 114.991 41.2699 116.551 43.1997 117.134L46.7262 118.199L49.4046 121.295C50.5167 122.603 52.2307 123.363 54.069 123.182L57.7297 122.817L61.3116 124.614C62.8534 125.442 64.767 125.509 66.4268 124.623L69.6417 122.9L73.6059 123.187C75.3775 123.386 77.211 122.711 78.4239 121.228L80.763 118.372L84.2141 117.226C86.0459 116.799 87.6054 115.432 88.1885 113.502L89.254 109.975L92.3498 107.297C93.6578 106.185 94.4176 104.471 94.237 102.633L93.8722 98.9719L95.669 95.39C96.4966 93.8482 96.5635 91.9346 95.6782 90.2748L93.955 87.0599L94.2417 83.0957C94.4408 81.3241 93.7654 79.4906 92.2829 78.2777L89.4264 75.9387L88.2808 72.4875C88.0193 71.3654 87.405 70.3454 86.5244 69.5895C85.9675 69.1115 85.3043 68.7389 84.5565 68.5131L83.6756 68.2464ZM63.8782 72.8613C74.9029 72.8613 83.8401 81.7985 83.8401 92.8232C83.8401 103.848 74.9029 112.785 63.8782 112.785C52.8535 112.785 43.9164 103.848 43.9164 92.8232C43.9164 81.7985 52.8538 72.8613 63.8782 72.8613Z" fill="#FFC144"/>
<path d="M77.9748 106.933C85.7693 99.1387 85.7693 86.5014 77.9748 78.7069C70.1803 70.9125 57.543 70.9125 49.7486 78.7069C41.9541 86.5014 41.9541 99.1387 49.7486 106.933C57.543 114.728 70.1803 114.728 77.9748 106.933Z" fill="#FFF2A0"/>
<path d="M63.8782 70.3661C51.4954 70.3661 41.4211 80.4403 41.4211 92.8232C41.4211 105.206 51.4954 115.28 63.8782 115.28C76.2613 115.28 86.3356 105.206 86.3356 92.8232C86.3356 80.4403 76.2613 70.3661 63.8782 70.3661ZM63.8782 110.29C54.2471 110.29 46.4116 102.454 46.4116 92.8232C46.4116 83.1921 54.2471 75.3566 63.8782 75.3566C73.5096 75.3566 81.3451 83.1921 81.3451 92.8232C81.3451 102.454 73.5096 110.29 63.8782 110.29Z" fill="black"/>
<path d="M127.422 1.24762C126.976 0.475591 126.153 0 125.261 0H82.0426C81.1513 0 80.3274 0.475591 79.8817 1.24762L63.8785 28.9662L47.8751 1.24762C47.4295 0.475591 46.6055 0 45.7142 0H2.49557C1.60427 0 0.780343 0.475591 0.334694 1.24762C-0.110954 2.01964 -0.110954 2.97082 0.334694 3.74285L38.1874 69.3058C37.7542 69.9506 37.4096 70.6607 37.1795 71.423L36.3229 74.2574L33.7903 76.4487C31.8118 78.131 30.7823 80.6764 31.0365 83.2614L31.3297 86.2028L29.871 89.1105C28.6339 91.4423 28.6354 94.2192 29.8795 96.551L31.2606 99.1283L31.0293 102.326C30.7473 104.996 31.8153 107.6 33.8928 109.299L36.1897 111.18L37.075 113.847C37.75 116.548 39.8103 118.716 42.4782 119.522L45.3125 120.379L47.5036 122.911C49.1859 124.89 51.7325 125.919 54.3163 125.665L57.2577 125.372L60.1649 126.83C61.3284 127.448 62.603 127.757 63.8778 127.757C65.1573 127.757 66.4376 127.445 67.6059 126.822L70.1832 125.441L73.3806 125.672C76.0503 125.953 78.6543 124.886 80.3543 122.809L82.2352 120.512L84.9021 119.627C87.6032 118.952 89.7713 116.891 90.5768 114.224L91.4334 111.389L93.9658 109.198C95.9445 107.516 96.974 104.97 96.7195 102.385L96.4263 99.4442L97.8848 96.5368C99.1224 94.2053 99.1209 91.4283 97.8771 89.096L96.4957 86.5184L96.727 83.3203C97.009 80.6502 95.9408 78.0466 93.8635 76.3471L91.5666 74.4662L90.6813 71.7993C90.456 70.898 90.0737 70.0581 89.5687 69.3063L127.422 3.74285C127.868 2.97082 127.868 2.01964 127.422 1.24762ZM73.9623 46.4318L97.8885 4.99047H106.533L78.2843 53.918L73.9623 46.4318ZM83.4831 4.99047H92.1261L71.081 41.4416L66.7595 33.9566L83.4831 4.99047ZM76.1391 60.1833C75.2688 59.9652 74.3578 59.8911 73.4405 59.9816L70.4991 60.2746L67.5917 58.8161C67.2107 58.614 66.8172 58.4483 66.4162 58.3123L35.6308 4.99047H44.2735L76.1391 60.1833ZM15.4615 4.99047L26.5197 24.1439C26.982 24.9443 27.8204 25.392 28.683 25.392C29.1062 25.392 29.5354 25.2839 29.9282 25.0571C31.1216 24.3682 31.5306 22.8421 30.8414 21.6486L21.224 4.99047H29.8685L60.778 58.5277C60.5661 58.618 60.3563 58.7146 60.1507 58.8241L57.5733 60.2057L54.3759 59.9744C53.8989 59.9238 53.4243 59.9183 52.9562 59.952L42.0717 41.0997C41.3825 39.9063 39.8564 39.4975 38.6632 40.1865C37.4697 40.8754 37.0608 42.4015 37.75 43.595L48.316 61.896C47.9899 62.1824 47.6827 62.4951 47.402 62.8379L45.5214 65.1348L42.8545 66.0199C42.6224 66.0778 42.3961 66.1496 42.1725 66.2275L6.81731 4.99047H15.4615ZM90.703 80.2085C91.4783 80.843 91.8745 81.8179 91.7623 82.8165C91.7585 82.8492 91.7555 82.8821 91.7533 82.9151L91.4666 86.8793C91.4324 87.3504 91.5329 87.8217 91.7558 88.2379L93.4765 91.4488C93.9373 92.3124 93.9351 93.3442 93.4707 94.2093C93.4598 94.2297 93.4493 94.2502 93.4388 94.2709L91.642 97.8528C91.4301 98.275 91.3426 98.7488 91.3892 99.2192L91.7538 102.877C91.8478 103.831 91.4666 104.773 90.7175 105.41L87.6219 108.088C87.2646 108.397 87.0026 108.801 86.8661 109.253L85.8004 112.78C85.497 113.785 84.6723 114.557 83.6483 114.796C83.5742 114.813 83.5008 114.834 83.4287 114.858L79.9775 116.003C79.5291 116.152 79.1321 116.425 78.833 116.791L76.4934 119.648C75.8586 120.423 74.8825 120.819 73.8857 120.707C73.8527 120.703 73.8195 120.7 73.7868 120.698L69.8227 120.411C69.3506 120.378 68.8802 120.477 68.4638 120.7L65.2539 122.421C64.3898 122.882 63.3575 122.879 62.4927 122.415C62.4725 122.404 62.452 122.394 62.4313 122.383L58.8496 120.587C58.5013 120.412 58.1183 120.322 57.731 120.322C57.6487 120.322 57.5661 120.326 57.4837 120.334L53.826 120.698C52.8696 120.793 51.9296 120.411 51.2928 119.662L48.6147 116.566C48.3058 116.209 47.9016 115.947 47.4494 115.81L43.9227 114.745C42.9181 114.441 42.1458 113.616 41.907 112.592C41.8898 112.518 41.8691 112.445 41.8451 112.373L40.6996 108.921C40.5506 108.473 40.2779 108.076 39.9123 107.777L37.055 105.437C36.2798 104.803 35.8835 103.828 35.9958 102.829C35.9995 102.796 36.0025 102.763 36.0048 102.73L36.2915 98.7663C36.3257 98.2949 36.2251 97.8238 36.002 97.4074L34.2813 94.1968C33.8205 93.3334 33.8227 92.3011 34.2871 91.4361C34.2978 91.4158 34.3085 91.3954 34.3188 91.3749L36.1156 87.793C36.3274 87.3708 36.415 86.897 36.3683 86.4266L36.0038 82.7686C35.91 81.8142 36.2912 80.8725 37.0401 80.2357L40.1359 77.5576C40.4932 77.2484 40.7552 76.8444 40.8917 76.3923L41.9574 72.8653C42.2608 71.8607 43.0855 71.0884 44.1096 70.8496C44.1837 70.8324 44.2568 70.8117 44.3291 70.7878L47.7803 69.6424C48.2287 69.4935 48.6254 69.2205 48.9249 68.8549L51.2646 65.9977C51.8992 65.2221 52.8738 64.8246 53.8722 64.9384C53.9051 64.9422 53.9383 64.9452 53.971 64.9477L57.9351 65.2344C58.407 65.2673 58.8776 65.168 59.294 64.9449L62.5042 63.2242C63.3673 62.7636 64.3993 62.7658 65.2651 63.2302C65.2853 63.2409 65.3058 63.2517 65.3263 63.2619L68.9082 65.0587C69.3304 65.2705 69.8042 65.3584 70.2743 65.3112L73.9321 64.9469C74.8887 64.8533 75.8285 65.2344 76.465 65.9832L79.1434 69.079C79.4523 69.4363 79.8565 69.6983 80.3089 69.8351L83.8354 70.9005C84.84 71.204 85.6123 72.0286 85.8511 73.0529C85.8683 73.1268 85.889 73.2001 85.9129 73.2722L87.0585 76.7234C87.2075 77.1716 87.4802 77.5686 87.8457 77.8677L90.703 80.2085ZM85.5841 66.2275C85.5045 66.1998 85.4251 66.1716 85.3443 66.1464L81.1655 58.9084L112.295 4.99047H120.94L85.5841 66.2275Z" fill="black"/>
<path d="M66.6447 100.309H66.3735V82.8423C66.3735 81.9507 65.8979 81.127 65.1259 80.6814C64.3538 80.2355 63.4027 80.2357 62.6306 80.6814L59.8644 82.2786C58.6709 82.9678 58.2619 84.4936 58.9511 85.6873C59.4612 86.5707 60.4288 87.0245 61.383 86.9207V100.309H61.112C59.7341 100.309 58.6168 101.426 58.6168 102.804C58.6168 104.182 59.7341 105.299 61.112 105.299H66.6447C68.0226 105.299 69.14 104.182 69.14 102.804C69.14 101.426 68.0226 100.309 66.6447 100.309Z" fill="black"/>
<path d="M34.296 30.1271H34.2942C32.9163 30.1271 31.8 31.2442 31.8 32.6224C31.8 34.0005 32.9178 35.1176 34.296 35.1176C35.6741 35.1176 36.7912 34.0005 36.7912 32.6224C36.7912 31.2442 35.6741 30.1271 34.296 30.1271Z" fill="black"/>
</g>
<defs>
<clipPath id="clip0">
<rect width="127.757" height="127.757" fill="white"/>
</clipPath>
</defs>
</svg>
